HIERARCHY
ROOT joint_Root
{
	OFFSET 0.0 0.0 0.0
	CHANNELS 6 Xposition Yposition Zposition Zrotation Xrotation Yrotation 
	JOINT Hips
	{
		OFFSET 4.5925 91.4895 -427.239
		CHANNELS 6 Xposition Yposition Zposition Zrotation Xrotation Yrotation 
		JOINT Spine
		{
			OFFSET 15.7357 0.0 0.0
			CHANNELS 6 Xposition Yposition Zposition Zrotation Xrotation Yrotation 
			JOINT Chest
			{
				OFFSET 8.98455 -0.406207 0.0
				CHANNELS 6 Xposition Yposition Zposition Zrotation Xrotation Yrotation 
				JOINT Neck
				{
					OFFSET 16.3773 0.0 0.0
					CHANNELS 6 Xposition Yposition Zposition Zrotation Xrotation Yrotation 
					JOINT Head
					{
						OFFSET 6.45672 0.0 0.0
						CHANNELS 6 Xposition Yposition Zposition Zrotation Xrotation Yrotation 
						End Site
						{
							OFFSET 0.0 0.0 0.0
						}
					}
				}
				JOINT Shoulder_L
				{
					OFFSET 12.9942 -0.242716 4.98039
					CHANNELS 6 Xposition Yposition Zposition Zrotation Xrotation Yrotation 
					JOINT UpperArm_L
					{
						OFFSET 5.34809 0.0 0.0
						CHANNELS 6 Xposition Yposition Zposition Zrotation Xrotation Yrotation 
						JOINT LowerArm_L
						{
							OFFSET 24.3286 1.87007e-05 0.0
							CHANNELS 6 Xposition Yposition Zposition Zrotation Xrotation Yrotation 
							JOINT Hand_L
							{
								OFFSET 22.2916 0.0 0.0
								CHANNELS 6 Xposition Yposition Zposition Zrotation Xrotation Yrotation 
								End Site
								{
									OFFSET 0.0 0.0 0.0
								}
							}
						}
					}
				}
				JOINT Shoulder_R
				{
					OFFSET 12.9945 -0.242716 -4.98039
					CHANNELS 6 Xposition Yposition Zposition Zrotation Xrotation Yrotation 
					JOINT UpperArm_R
					{
						OFFSET -5.34813 0.0 0.0
						CHANNELS 6 Xposition Yposition Zposition Zrotation Xrotation Yrotation 
						JOINT LowerArm_R
						{
							OFFSET -24.3289 0.000322201 0.0
							CHANNELS 6 Xposition Yposition Zposition Zrotation Xrotation Yrotation 
							JOINT Hand_R
							{
								OFFSET -22.2915 -0.000108084 0.0
								CHANNELS 6 Xposition Yposition Zposition Zrotation Xrotation Yrotation 
								End Site
								{
									OFFSET 0.0 0.0 0.0
								}
							}
						}
					}
				}
			}
		}
		JOINT UpperLeg_L
		{
			OFFSET -2.19248 -6.46944 0.0
			CHANNELS 6 Xposition Yposition Zposition Zrotation Xrotation Yrotation 
			JOINT LowerLeg_L
			{
				OFFSET 39.0811 0.0 -1.23785e-05
				CHANNELS 6 Xposition Yposition Zposition Zrotation Xrotation Yrotation 
				JOINT Foot_L
				{
					OFFSET 40.9854 0.0 -1.26872e-05
					CHANNELS 6 Xposition Yposition Zposition Zrotation Xrotation Yrotation 
					JOINT Toes_L
					{
						OFFSET 11.7543 0.0 0.0
						CHANNELS 6 Xposition Yposition Zposition Zrotation Xrotation Yrotation 
						End Site
						{
							OFFSET 0.0 0.0 0.0
						}
					}
				}
			}
		}
		JOINT UpperLeg_R
		{
			OFFSET -2.19251 6.46944 0.0
			CHANNELS 6 Xposition Yposition Zposition Zrotation Xrotation Yrotation 
			JOINT LowerLeg_R
			{
				OFFSET -39.0811 -0.00228153 -0.0401928
				CHANNELS 6 Xposition Yposition Zposition Zrotation Xrotation Yrotation 
				JOINT Foot_R
				{
					OFFSET -40.9854 0.0 0.0
					CHANNELS 6 Xposition Yposition Zposition Zrotation Xrotation Yrotation 
					JOINT Toes_R
					{
						OFFSET -11.7543 0.0 0.0
						CHANNELS 6 Xposition Yposition Zposition Zrotation Xrotation Yrotation 
						End Site
						{
							OFFSET 0.0 0.0 0.0
						}
					}
				}
			}
		}
	}
}
MOTION
Frames:	4
Frame Time:	0.0333333
0.000000 0.000000 0.000000 0.000000 0.000000 -0.000000 -2.108300 90.324400 -3.279030 89.202100 -3.014150 12.899900 15.735700 0.000005 -0.000001 88.349100 77.267400 -87.650800 8.984550 -0.406207 -0.000000 17.693900 -0.660368 1.501890 16.377300 -0.000001 -0.000001 11.420700 -4.590850 0.009102 6.456720 -0.000001 -0.000000 -7.237080 -4.320920 2.007580 12.994200 -0.242716 4.980390 -89.653200 -1.073520 -72.097700 5.348090 -0.000007 -0.000001 -69.408800 -26.403200 -79.629300 24.328600 0.000019 0.000005 37.345000 -4.230010 -95.521500 22.291600 -0.000001 0.000005 16.115100 5.042780 6.395700 12.994500 -0.242716 -4.980390 88.919800 9.417140 -83.426200 -5.348130 -0.000001 -0.000004 -57.027700 34.858200 -22.615700 -24.328900 0.000322 -0.000009 1.939220 5.073370 -20.961300 -22.291500 -0.000108 -0.000004 16.806800 5.425090 -3.771170 -2.192480 -6.469440 -0.000000 -173.129000 -13.228500 -1.346250 39.081100 -0.000007 -0.000012 -0.208314 0.305335 34.304000 40.985400 -0.000006 -0.000013 -0.631235 3.820620 -69.469500 11.754300 -0.000000 0.000003 -0.000197 -0.001826 -16.646500 -2.192510 6.469440 -0.000001 174.660000 21.022200 -179.960000 -39.081100 -0.002282 -0.040193 -0.224207 0.343072 33.549900 -40.985400 0.000008 0.000006 4.548810 12.739000 -70.433600 -11.754300 -0.000006 -0.000006 -0.002766 -0.037926 -18.115400
0.000000 0.000000 0.000000 0.000000 0.000000 -0.000000 -2.121210 90.319200 -3.319740 89.177700 -3.028980 12.949400 15.735700 0.000005 -0.000001 88.372400 77.221800 -87.671900 8.984550 -0.406207 -0.000000 17.785400 -0.651884 1.505600 16.377300 -0.000001 -0.000001 11.649000 -4.609690 0.025793 6.456720 -0.000001 -0.000000 -7.057000 -4.335360 1.970660 12.994200 -0.242716 4.980390 -89.652400 -1.074380 -72.069900 5.348090 -0.000007 -0.000001 -69.543900 -26.315800 -79.633500 24.328600 0.000019 0.000005 37.321200 -4.221570 -95.515300 22.291600 -0.000001 0.000005 16.173000 5.040480 6.446190 12.994500 -0.242716 -4.980390 88.917500 9.410770 -83.408300 -5.348130 -0.000001 -0.000004 -56.939100 34.826200 -22.728100 -24.328900 0.000322 -0.000009 1.954470 5.101380 -21.006200 -22.291500 -0.000108 -0.000004 16.816000 5.425040 -3.769480 -2.192480 -6.469440 -0.000000 -173.083000 -13.223600 -1.339640 39.081100 -0.000007 -0.000012 -0.209381 0.306432 34.344700 40.985400 -0.000006 -0.000013 -0.633659 3.839470 -69.463200 11.754300 -0.000000 0.000003 -0.000203 -0.001877 -16.648300 -2.192510 6.469440 -0.000001 174.699000 20.991300 -179.952000 -39.081100 -0.002282 -0.040193 -0.222191 0.339768 33.570300 -40.985400 0.000008 0.000006 4.561030 12.715500 -70.418500 -11.754300 -0.000006 -0.000006 -0.002723 -0.037428 -18.095200
0.000000 0.000000 0.000000 0.000000 0.000000 -0.000000 -2.129370 90.315400 -3.351520 89.196800 -3.019190 12.982200 15.735700 0.000005 -0.000001 88.340300 77.181700 -87.651900 8.984550 -0.406207 -0.000000 17.865100 -0.668654 1.484530 16.377300 -0.000001 -0.000001 11.974100 -4.618530 0.043944 6.456720 -0.000001 -0.000000 -7.081820 -4.350640 1.947830 12.994200 -0.242716 4.980390 -89.653400 -1.067780 -72.013600 5.348090 -0.000007 -0.000001 -69.601600 -26.231600 -79.588300 24.328600 0.000019 0.000005 37.330700 -4.222800 -95.515000 22.291600 -0.000001 0.000005 16.119800 5.042080 6.411100 12.994500 -0.242716 -4.980390 88.911300 9.418240 -83.375900 -5.348130 -0.000001 -0.000004 -56.828800 34.860100 -22.837800 -24.328900 0.000322 -0.000009 1.965820 5.131510 -21.004600 -22.291500 -0.000108 -0.000004 16.824000 5.424350 -3.746180 -2.192480 -6.469440 -0.000000 -173.101000 -13.195100 -1.344580 39.081100 -0.000007 -0.000012 -0.212870 0.311380 34.358200 40.985400 -0.000006 -0.000013 -0.645465 3.804370 -69.440900 11.754300 -0.000000 0.000003 -0.000206 -0.001900 -16.649200 -2.192510 6.469440 -0.000001 174.665000 21.033100 -179.950000 -39.081100 -0.002282 -0.040193 -0.221297 0.337980 33.604700 -40.985400 0.000008 0.000006 4.581340 12.744300 -70.422300 -11.754300 -0.000006 -0.000006 -0.002716 -0.037351 -18.092000
0.000000 0.000000 0.000000 0.000000 0.000000 -0.000000 -2.131030 90.316000 -3.378670 89.177200 -3.064010 13.007900 15.735700 0.000005 -0.000001 88.432900 77.136800 -87.745900 8.984550 -0.406207 -0.000000 17.955800 -0.629846 1.476420 16.377300 -0.000001 -0.000001 12.181400 -4.644060 0.056191 6.456720 -0.000001 -0.000000 -7.077310 -4.389220 1.908540 12.994200 -0.242716 4.980390 -89.663300 -1.034580 -71.971500 5.348090 -0.000007 -0.000001 -69.606700 -26.227400 -79.597800 24.328600 0.000019 0.000005 37.463900 -4.227190 -95.494300 22.291600 -0.000001 0.000005 16.028700 5.038560 6.488160 12.994500 -0.242716 -4.980390 88.909700 9.394300 -83.349500 -5.348130 -0.000001 -0.000004 -56.798900 34.872300 -22.935900 -24.328900 0.000322 -0.000009 1.962840 5.151840 -20.900200 -22.291500 -0.000108 -0.000004 16.820100 5.425050 -3.769990 -2.192480 -6.469440 -0.000000 -173.069000 -13.238000 -1.330740 39.081100 -0.000007 -0.000012 -0.210118 0.307223 34.369600 40.985400 -0.000006 -0.000013 -0.641502 3.803780 -69.434500 11.754300 -0.000000 0.000003 -0.000192 -0.001791 -16.645200 -2.192510 6.469440 -0.000001 174.696000 20.990400 -179.950000 -39.081100 -0.002282 -0.040193 -0.222489 0.339853 33.598500 -40.985400 0.000008 0.000006 4.583560 12.742400 -70.394100 -11.754300 -0.000006 -0.000006 -0.002620 -0.036225 -18.046200
